{
  "source": "C:\\Users\\Peter\\Desktop\\stuff\\MIUN\\quantitative_research\\video_compression\\videos\\UVG\\HoneyBee_1920x1080_120fps_420_8bit_YUV.y4m",
  "output": "C:\\Users\\Peter\\Desktop\\stuff\\MIUN\\quantitative_research\\video_compression\\compressed_videos\\UVG\\vp9\\1\\HoneyBee_1920x1080_120fps_420_8bit_YUV_vp9.webm",
  "codec": "vp9",
  "ok": "[yuv4mpegpipe @ 000001a0ff505280] Stream #0: not enough frames to estimate rate; consider increasing probesize\nInput #0, yuv4mpegpipe, from 'C:\\Users\\Peter\\Desktop\\stuff\\MIUN\\quantitative_research\\video_compression\\videos\\UVG\\HoneyBee_1920x1080_120fps_420_8bit_YUV.y4m':\n  Duration: 00:00:05.00, start: 0.000000, bitrate: 2985989 kb/s\n  Stream #0:0: Video: rawvideo (I420 / 0x30323449), yuv420p(progressive), 1920x1080, 120 fps, 120 tbr, 120 tbn\n[out#0/webm @ 000001a0ff508e00] Codec AVOption b:a (set bitrate (in bits/s)) has not been used for any stream. The most likely reason is either wrong type (e.g. a video option with no video streams) or that it is a private option of some decoder which was not actually used for any stream.\nStream mapping:\n  Stream #0:0 -> #0:0 (rawvideo (native) -> vp9 (libvpx-vp9))\nPress [q] to stop, [?] for help\n[libvpx-vp9 @ 000001a0ff50bf80] v1.15.2-100-g40561f514\nOutput #0, webm, to 'C:\\Users\\Peter\\Desktop\\stuff\\MIUN\\quantitative_research\\video_compression\\compressed_videos\\UVG\\vp9\\1\\HoneyBee_1920x1080_120fps_420_8bit_YUV_vp9.webm':\n  Metadata:\n    encoder         : Lavf62.3.100\n  Stream #0:0: Video: vp9, yuv420p(tv, progressive), 1920x1080, q=2-31, 1000 kb/s, 120 fps, 1k tbn\n    Metadata:\n      encoder         : Lavc62.11.100 libvpx-vp9\n    Side data:\n      cpb: bitrate max/min/avg: 0/0/0 buffer size: 1000000 vbv_delay: N/A\nframe=    0 fps=0.0 q=0.0 size=       0KiB time=N/A bitrate=N/A speed=N/A elapsed=0:00:00.51    \nframe=    0 fps=0.0 q=0.0 size=       0KiB time=N/A bitrate=N/A speed=N/A elapsed=0:00:01.10    \nframe=    2 fps=1.2 q=63.0 size=       0KiB time=00:00:00.01 bitrate= 230.9kbits/s speed=0.0102x elapsed=0:00:01.63    \nframe=    4 fps=1.9 q=62.0 size=       0KiB time=00:00:00.03 bitrate= 115.4kbits/s speed=0.0154x elapsed=0:00:02.16    \nframe=    7 fps=2.6 q=60.0 size=       0KiB time=00:00:00.05 bitrate=  66.0kbits/s speed=0.0217x elapsed=0:00:02.68    \nframe=    9 fps=2.8 q=46.0 size=       0KiB time=00:00:00.07 bitrate=  51.3kbits/s speed=0.0234x elapsed=0:00:03.20    \nframe=   10 fps=2.6 q=48.0 size=       0KiB time=00:00:00.08 bitrate=  46.2kbits/s speed=0.022x elapsed=0:00:03.79    \nframe=   13 fps=3.0 q=49.0 size=       0KiB time=00:00:00.10 bitrate=  35.5kbits/s speed=0.0251x elapsed=0:00:04.32    \nframe=   15 fps=3.1 q=43.0 size=       0KiB time=00:00:00.12 bitrate=  30.8kbits/s speed=0.0258x elapsed=0:00:04.84    \nframe=   16 fps=3.0 q=35.0 size=       0KiB time=00:00:00.13 bitrate=  28.9kbits/s speed=0.0248x elapsed=0:00:05.38    \nframe=   19 fps=3.2 q=39.0 size=       0KiB time=00:00:00.15 bitrate=  24.3kbits/s speed=0.0269x elapsed=0:00:05.89    \nframe=   21 fps=3.3 q=37.0 size=       0KiB time=00:00:00.17 bitrate=  22.0kbits/s speed=0.0273x elapsed=0:00:06.41    \nframe=   23 fps=3.3 q=37.0 size=       0KiB time=00:00:00.19 bitrate=  20.1kbits/s speed=0.0276x elapsed=0:00:06.94    \nframe=   24 fps=3.2 q=36.0 size=       0KiB time=00:00:00.20 bitrate=  19.2kbits/s speed=0.0266x elapsed=0:00:07.50    \nframe=   26 fps=3.2 q=37.0 size=       0KiB time=00:00:00.21 bitrate=  17.8kbits/s speed=0.027x elapsed=0:00:08.03    \nframe=   28 fps=3.3 q=37.0 size=       0KiB time=00:00:00.23 bitrate=  16.5kbits/s speed=0.0272x elapsed=0:00:08.58    \nframe=   30 fps=3.3 q=37.0 size=       0KiB time=00:00:00.25 bitrate=  15.4kbits/s speed=0.0274x elapsed=0:00:09.12    \nframe=   30 fps=3.1 q=37.0 size=       0KiB time=00:00:00.25 bitrate=  15.4kbits/s speed=0.0259x elapsed=0:00:09.65    \nframe=   32 fps=3.1 q=37.0 size=       0KiB time=00:00:00.26 bitrate=  14.4kbits/s speed=0.0262x elapsed=0:00:10.19    \nframe=   34 fps=3.2 q=36.0 size=       0KiB time=00:00:00.28 bitrate=  13.6kbits/s speed=0.0264x elapsed=0:00:10.72    \nframe=   36 fps=3.2 q=36.0 size=       0KiB time=00:00:00.30 bitrate=  12.8kbits/s speed=0.0266x elapsed=0:00:11.26    \nframe=   39 fps=3.3 q=36.0 size=       0KiB time=00:00:00.32 bitrate=  11.8kbits/s speed=0.0276x elapsed=0:00:11.79    \nframe=   41 fps=3.3 q=35.0 size=       0KiB time=00:00:00.34 bitrate=  11.3kbits/s speed=0.0277x elapsed=0:00:12.32    \nframe=   44 fps=3.4 q=35.0 size=       0KiB time=00:00:00.36 bitrate=  10.5kbits/s speed=0.0285x elapsed=0:00:12.85    \nframe=   45 fps=3.4 q=35.0 size=       0KiB time=00:00:00.37 bitrate=  10.3kbits/s speed=0.028x elapsed=0:00:13.38    \nframe=   46 fps=3.3 q=27.0 size=       0KiB time=00:00:00.38 bitrate=  10.0kbits/s speed=0.0276x elapsed=0:00:13.89    \nframe=   48 fps=3.3 q=32.0 size=       0KiB time=00:00:00.40 bitrate=   9.6kbits/s speed=0.0277x elapsed=0:00:14.44    \nframe=   50 fps=3.3 q=31.0 size=       0KiB time=00:00:00.41 bitrate=   9.2kbits/s speed=0.0278x elapsed=0:00:14.99    \nframe=   52 fps=3.3 q=32.0 size=       0KiB time=00:00:00.43 bitrate=   8.9kbits/s speed=0.0279x elapsed=0:00:15.52    \nframe=   54 fps=3.4 q=32.0 size=       0KiB time=00:00:00.45 bitrate=   8.6kbits/s speed=0.028x elapsed=0:00:16.05    \nframe=   56 fps=3.4 q=32.0 size=       0KiB time=00:00:00.46 bitrate=   8.2kbits/s speed=0.0281x elapsed=0:00:16.58    \nframe=   58 fps=3.4 q=32.0 size=       0KiB time=00:00:00.48 bitrate=   8.0kbits/s speed=0.0283x elapsed=0:00:17.09    \nframe=   60 fps=3.4 q=32.0 size=       0KiB time=00:00:00.50 bitrate=   7.7kbits/s speed=0.0284x elapsed=0:00:17.63    \nframe=   60 fps=3.3 q=32.0 size=       0KiB time=00:00:00.50 bitrate=   7.7kbits/s speed=0.0275x elapsed=0:00:18.17    \nframe=   62 fps=3.3 q=33.0 size=       0KiB time=00:00:00.51 bitrate=   7.4kbits/s speed=0.0276x elapsed=0:00:18.72    \nframe=   64 fps=3.3 q=31.0 size=       0KiB time=00:00:00.53 bitrate=   7.2kbits/s speed=0.0277x elapsed=0:00:19.25    \nframe=   66 fps=3.3 q=31.0 size=       0KiB time=00:00:00.55 bitrate=   7.0kbits/s speed=0.0278x elapsed=0:00:19.77    \nframe=   69 fps=3.4 q=32.0 size=       0KiB time=00:00:00.57 bitrate=   6.7kbits/s speed=0.0283x elapsed=0:00:20.31    \nframe=   71 fps=3.4 q=32.0 size=       0KiB time=00:00:00.59 bitrate=   6.5kbits/s speed=0.0284x elapsed=0:00:20.85    \nframe=   73 fps=3.4 q=32.0 size=       0KiB time=00:00:00.60 bitrate=   6.3kbits/s speed=0.0284x elapsed=0:00:21.38    \nframe=   75 fps=3.4 q=32.0 size=       0KiB time=00:00:00.62 bitrate=   6.2kbits/s speed=0.0285x elapsed=0:00:21.91    \nframe=   77 fps=3.4 q=31.0 size=       0KiB time=00:00:00.63 bitrate=   6.1kbits/s speed=0.0282x elapsed=0:00:22.45    \nframe=   79 fps=3.4 q=30.0 size=       0KiB time=00:00:00.65 bitrate=   5.8kbits/s speed=0.0286x elapsed=0:00:23.00    \nframe=   81 fps=3.4 q=31.0 size=       0KiB time=00:00:00.67 bitrate=   5.7kbits/s speed=0.0287x elapsed=0:00:23.53    \nframe=   83 fps=3.4 q=31.0 size=       0KiB time=00:00:00.69 bitrate=   5.6kbits/s speed=0.0287x elapsed=0:00:24.06    \nframe=   86 fps=3.5 q=31.0 size=       0KiB time=00:00:00.70 bitrate=   5.4kbits/s speed=0.0288x elapsed=0:00:24.59    \nframe=   88 fps=3.5 q=31.0 size=       0KiB time=00:00:00.73 bitrate=   5.2kbits/s speed=0.0292x elapsed=0:00:25.14    \nframe=   90 fps=3.5 q=30.0 size=       0KiB time=00:00:00.75 bitrate=   5.1kbits/s speed=0.0292x elapsed=0:00:25.67    \nframe=   90 fps=3.4 q=30.0 size=       0KiB time=00:00:00.75 bitrate=   5.1kbits/s speed=0.0286x elapsed=0:00:26.22    \nframe=   92 fps=3.4 q=30.0 size=       0KiB time=00:00:00.76 bitrate=   5.0kbits/s speed=0.0286x elapsed=0:00:26.77    \nframe=   94 fps=3.4 q=27.0 size=       0KiB time=00:00:00.78 bitrate=   4.9kbits/s speed=0.0287x elapsed=0:00:27.31    \nframe=   96 fps=3.4 q=28.0 size=       0KiB time=00:00:00.80 bitrate=   4.8kbits/s speed=0.0287x elapsed=0:00:27.84    \nframe=   98 fps=3.5 q=28.0 size=       0KiB time=00:00:00.81 bitrate=   4.7kbits/s speed=0.0288x elapsed=0:00:28.37    \nframe=  101 fps=3.5 q=28.0 size=       0KiB time=00:00:00.84 bitrate=   4.6kbits/s speed=0.0291x elapsed=0:00:28.89    \nframe=  103 fps=3.5 q=28.0 size=       0KiB time=00:00:00.85 bitrate=   4.5kbits/s speed=0.0292x elapsed=0:00:29.41    \nframe=  105 fps=3.5 q=29.0 size=       0KiB time=00:00:00.87 bitrate=   4.4kbits/s speed=0.0292x elapsed=0:00:29.95    \nframe=  105 fps=3.4 q=29.0 size=       0KiB time=00:00:00.87 bitrate=   4.4kbits/s speed=0.0287x elapsed=0:00:30.48    \nframe=  108 fps=3.5 q=31.0 size=       0KiB time=00:00:00.90 bitrate=   4.3kbits/s speed=0.029x elapsed=0:00:31.01    \nframe=  110 fps=3.5 q=31.0 size=       0KiB time=00:00:00.91 bitrate=   4.2kbits/s speed=0.029x elapsed=0:00:31.55    \nframe=  113 fps=3.5 q=31.0 size=       0KiB time=00:00:00.94 bitrate=   4.1kbits/s speed=0.0294x elapsed=0:00:32.07    \nframe=  115 fps=3.5 q=31.0 size=       0KiB time=00:00:00.95 bitrate=   4.0kbits/s speed=0.0294x elapsed=0:00:32.61    \nframe=  116 fps=3.5 q=31.0 size=       0KiB time=00:00:00.96 bitrate=   4.0kbits/s speed=0.0292x elapsed=0:00:33.14    \nframe=  118 fps=3.5 q=26.0 size=       0KiB time=00:00:00.98 bitrate=   3.9kbits/s speed=0.0292x elapsed=0:00:33.69    \nframe=  120 fps=3.5 q=26.0 size=       0KiB time=00:00:01.00 bitrate=   3.8kbits/s speed=0.0292x elapsed=0:00:34.23    \nframe=  122 fps=3.5 q=26.0 size=       0KiB time=00:00:01.00 bitrate=   3.8kbits/s speed=0.029x elapsed=0:00:34.77    \nframe=  123 fps=3.5 q=26.0 size=       0KiB time=00:00:01.02 bitrate=   3.8kbits/s speed=0.029x elapsed=0:00:35.31    \nframe=  126 fps=3.5 q=27.0 size=       0KiB time=00:00:01.05 bitrate=   3.7kbits/s speed=0.0293x elapsed=0:00:35.85    \nframe=  128 fps=3.5 q=27.0 size=       0KiB time=00:00:01.06 bitrate=   3.6kbits/s speed=0.0293x elapsed=0:00:36.39    \nframe=  128 fps=3.5 q=27.0 size=       0KiB time=00:00:01.06 bitrate=   3.6kbits/s speed=0.0289x elapsed=0:00:36.93    \nframe=  130 fps=3.5 q=27.0 size=     219KiB time=00:00:01.08 bitrate=1657.3kbits/s speed=0.0289x elapsed=0:00:37.48    \nframe=  132 fps=3.5 q=26.0 size=     219KiB time=00:00:01.10 bitrate=1632.2kbits/s speed=0.0289x elapsed=0:00:38.01    \nframe=  134 fps=3.5 q=26.0 size=     219KiB time=00:00:01.11 bitrate=1607.8kbits/s speed=0.029x elapsed=0:00:38.53    \nframe=  136 fps=3.5 q=26.0 size=     219KiB time=00:00:01.13 bitrate=1584.2kbits/s speed=0.029x elapsed=0:00:39.05    \nframe=  138 fps=3.5 q=27.0 size=     219KiB time=00:00:01.15 bitrate=1561.2kbits/s speed=0.0291x elapsed=0:00:39.58    \nframe=  140 fps=3.5 q=27.0 size=     219KiB time=00:00:01.16 bitrate=1538.9kbits/s speed=0.0291x elapsed=0:00:40.12    \nframe=  142 fps=3.5 q=26.0 size=     219KiB time=00:00:01.18 bitrate=1517.2kbits/s speed=0.0291x elapsed=0:00:40.64    \nframe=  143 fps=3.5 q=26.0 size=     219KiB time=00:00:01.19 bitrate=1506.6kbits/s speed=0.0289x elapsed=0:00:41.18    \nframe=  144 fps=3.5 q=16.0 size=     219KiB time=00:00:01.20 bitrate=1496.2kbits/s speed=0.0288x elapsed=0:00:41.72    \nframe=  146 fps=3.5 q=26.0 size=     219KiB time=00:00:01.21 bitrate=1475.7kbits/s speed=0.0288x elapsed=0:00:42.26    \nframe=  148 fps=3.5 q=26.0 size=     219KiB time=00:00:01.23 bitrate=1455.7kbits/s speed=0.0288x elapsed=0:00:42.78    \nframe=  150 fps=3.5 q=26.0 size=     219KiB time=00:00:01.25 bitrate=1436.3kbits/s speed=0.0289x elapsed=0:00:43.31    \nframe=  153 fps=3.5 q=26.0 size=     219KiB time=00:00:01.27 bitrate=1408.1kbits/s speed=0.0291x elapsed=0:00:43.85    \nframe=  155 fps=3.5 q=26.0 size=     219KiB time=00:00:01.29 bitrate=1390.0kbits/s speed=0.0291x elapsed=0:00:44.38    \nframe=  157 fps=3.5 q=26.0 size=     219KiB time=00:00:01.30 bitrate=1372.3kbits/s speed=0.0291x elapsed=0:00:44.94    \nframe=  158 fps=3.5 q=26.0 size=     219KiB time=00:00:01.31 bitrate=1363.6kbits/s speed=0.0289x elapsed=0:00:45.48    \nframe=  158 fps=3.4 q=26.0 size=     219KiB time=00:00:01.31 bitrate=1363.6kbits/s speed=0.0286x elapsed=0:00:46.03    \nframe=  161 fps=3.5 q=26.0 size=     219KiB time=00:00:01.33 bitrate=1346.5kbits/s speed=0.0286x elapsed=0:00:46.56    \nframe=  163 fps=3.5 q=26.0 size=     219KiB time=00:00:01.35 bitrate=1329.9kbits/s speed=0.0287x elapsed=0:00:47.08    \nframe=  165 fps=3.5 q=26.0 size=     219KiB time=00:00:01.37 bitrate=1305.7kbits/s speed=0.0289x elapsed=0:00:47.61    \nframe=  167 fps=3.5 q=26.0 size=     219KiB time=00:00:01.39 bitrate=1290.1kbits/s speed=0.0289x elapsed=0:00:48.14    \nframe=  169 fps=3.5 q=26.0 size=     219KiB time=00:00:01.40 bitrate=1274.8kbits/s speed=0.0289x elapsed=0:00:48.69    \nframe=  171 fps=3.5 q=26.0 size=     219KiB time=00:00:01.42 bitrate=1259.9kbits/s speed=0.0289x elapsed=0:00:49.22    \nframe=  173 fps=3.5 q=26.0 size=     219KiB time=00:00:01.44 bitrate=1245.4kbits/s speed=0.029x elapsed=0:00:49.73    \nframe=  173 fps=3.4 q=26.0 size=     219KiB time=00:00:01.44 bitrate=1245.4kbits/s speed=0.0287x elapsed=0:00:50.25    \nframe=  174 fps=3.4 q=16.0 size=     219KiB time=00:00:01.45 bitrate=1238.2kbits/s speed=0.0285x elapsed=0:00:50.79    \nframe=  176 fps=3.4 q=27.0 size=     219KiB time=00:00:01.46 bitrate=1224.1kbits/s speed=0.0286x elapsed=0:00:51.32    \nframe=  179 fps=3.5 q=27.0 size=     219KiB time=00:00:01.49 bitrate=1203.6kbits/s speed=0.0288x elapsed=0:00:51.84    \nframe=  181 fps=3.5 q=27.0 size=     219KiB time=00:00:01.50 bitrate=1190.3kbits/s speed=0.0288x elapsed=0:00:52.38    \nframe=  183 fps=3.5 q=27.0 size=     219KiB time=00:00:01.52 bitrate=1177.3kbits/s speed=0.0288x elapsed=0:00:52.90    \nframe=  186 fps=3.5 q=27.0 size=     219KiB time=00:00:01.55 bitrate=1158.3kbits/s speed=0.029x elapsed=0:00:53.44    \nframe=  188 fps=3.5 q=27.0 size=     219KiB time=00:00:01.56 bitrate=1146.0kbits/s speed=0.029x elapsed=0:00:53.98    \nframe=  188 fps=3.4 q=27.0 size=     219KiB time=00:00:01.56 bitrate=1146.0kbits/s speed=0.0287x elapsed=0:00:54.50    \nframe=  189 fps=3.4 q=16.0 size=     219KiB time=00:00:01.57 bitrate=1139.9kbits/s speed=0.0286x elapsed=0:00:55.04    \nframe=  191 fps=3.4 q=26.0 size=     219KiB time=00:00:01.59 bitrate=1128.0kbits/s speed=0.0286x elapsed=0:00:55.57    \nframe=  194 fps=3.5 q=26.0 size=     219KiB time=00:00:01.61 bitrate=1110.5kbits/s speed=0.0288x elapsed=0:00:56.10    \nframe=  195 fps=3.4 q=27.0 size=     219KiB time=00:00:01.62 bitrate=1104.9kbits/s speed=0.0287x elapsed=0:00:56.62    \nframe=  197 fps=3.4 q=26.0 size=     219KiB time=00:00:01.64 bitrate=1093.6kbits/s speed=0.0287x elapsed=0:00:57.17    \nframe=  200 fps=3.5 q=26.0 size=     219KiB time=00:00:01.66 bitrate=1077.2kbits/s speed=0.0289x elapsed=0:00:57.70    \nframe=  202 fps=3.5 q=26.0 size=     219KiB time=00:00:01.68 bitrate=1066.6kbits/s speed=0.0289x elapsed=0:00:58.23    \nframe=  203 fps=3.5 q=26.0 size=     219KiB time=00:00:01.69 bitrate=1061.3kbits/s speed=0.0288x elapsed=0:00:58.77    \nframe=  204 fps=3.4 q=16.0 size=     219KiB time=00:00:01.70 bitrate=1056.1kbits/s speed=0.0287x elapsed=0:00:59.32    \nframe=  207 fps=3.5 q=26.0 size=     219KiB time=00:00:01.72 bitrate=1040.8kbits/s speed=0.0288x elapsed=0:00:59.86    \nframe=  209 fps=3.5 q=26.0 size=     219KiB time=00:00:01.74 bitrate=1030.8kbits/s speed=0.0288x elapsed=0:01:00.38    \nframe=  211 fps=3.5 q=26.0 size=     219KiB time=00:00:01.75 bitrate=1021.1kbits/s speed=0.0289x elapsed=0:01:00.91    \nframe=  213 fps=3.5 q=26.0 size=     219KiB time=00:00:01.77 bitrate=1011.5kbits/s speed=0.0289x elapsed=0:01:01.44    \nframe=  216 fps=3.5 q=26.0 size=     219KiB time=00:00:01.80 bitrate= 997.4kbits/s speed=0.029x elapsed=0:01:01.98    \nframe=  218 fps=3.5 q=26.0 size=     219KiB time=00:00:01.81 bitrate= 988.3kbits/s speed=0.0291x elapsed=0:01:02.50    \nframe=  218 fps=3.5 q=26.0 size=     219KiB time=00:00:01.81 bitrate= 988.3kbits/s speed=0.0288x elapsed=0:01:03.03    \nframe=  220 fps=3.5 q=25.0 size=     219KiB time=00:00:01.83 bitrate= 979.3kbits/s speed=0.0288x elapsed=0:01:03.56    \nframe=  222 fps=3.5 q=25.0 size=     219KiB time=00:00:01.85 bitrate= 970.5kbits/s speed=0.0289x elapsed=0:01:04.11    \nframe=  224 fps=3.5 q=25.0 size=     219KiB time=00:00:01.86 bitrate= 961.8kbits/s speed=0.0289x elapsed=0:01:04.64    \nframe=  226 fps=3.5 q=25.0 size=     219KiB time=00:00:01.88 bitrate= 953.3kbits/s speed=0.0289x elapsed=0:01:05.17    \nframe=  228 fps=3.5 q=25.0 size=     219KiB time=00:00:01.90 bitrate= 944.9kbits/s speed=0.0289x elapsed=0:01:05.69    \nframe=  230 fps=3.5 q=25.0 size=     219KiB time=00:00:01.91 bitrate= 936.7kbits/s speed=0.0289x elapsed=0:01:06.22    \nframe=  232 fps=3.5 q=26.0 size=     219KiB time=00:00:01.93 bitrate= 928.6kbits/s speed=0.029x elapsed=0:01:06.76    \nframe=  233 fps=3.5 q=25.0 size=     219KiB time=00:00:01.94 bitrate= 924.7kbits/s speed=0.0289x elapsed=0:01:07.28    \nframe=  233 fps=3.4 q=25.0 size=     219KiB time=00:00:01.94 bitrate= 924.7kbits/s speed=0.0286x elapsed=0:01:07.80    \nframe=  235 fps=3.4 q=28.0 size=     219KiB time=00:00:01.95 bitrate= 916.8kbits/s speed=0.0287x elapsed=0:01:08.33    \nframe=  238 fps=3.5 q=28.0 size=     219KiB time=00:00:01.98 bitrate= 905.2kbits/s speed=0.0288x elapsed=0:01:08.85    \nframe=  241 fps=3.5 q=28.0 size=     219KiB time=00:00:02.00 bitrate= 897.7kbits/s speed=0.0288x elapsed=0:01:09.38    \nframe=  243 fps=3.5 q=28.0 size=     219KiB time=00:00:02.02 bitrate= 886.6kbits/s speed=0.029x elapsed=0:01:09.91    \nframe=  244 fps=3.5 q=28.0 size=     219KiB time=00:00:02.03 bitrate= 883.0kbits/s speed=0.0289x elapsed=0:01:10.45    \nframe=  246 fps=3.5 q=28.0 size=     219KiB time=00:00:02.05 bitrate= 875.8kbits/s speed=0.0289x elapsed=0:01:10.99    \nframe=  248 fps=3.5 q=28.0 size=     219KiB time=00:00:02.06 bitrate= 868.7kbits/s speed=0.0289x elapsed=0:01:11.51    \nframe=  251 fps=3.5 q=28.0 size=     219KiB time=00:00:02.09 bitrate= 858.4kbits/s speed=0.029x elapsed=0:01:12.03    \nframe=  253 fps=3.5 q=28.0 size=     219KiB time=00:00:02.10 bitrate= 851.6kbits/s speed=0.0291x elapsed=0:01:12.56    \nframe=  256 fps=3.5 q=28.0 size=     219KiB time=00:00:02.13 bitrate= 841.6kbits/s speed=0.0292x elapsed=0:01:13.10    \nframe=  256 fps=3.5 q=28.0 size=     219KiB time=00:00:02.13 bitrate= 841.6kbits/s speed=0.029x elapsed=0:01:13.64    \nframe=  258 fps=3.5 q=27.0 size=     512KiB time=00:00:02.15 bitrate=1950.8kbits/s speed=0.029x elapsed=0:01:14.18    \nframe=  260 fps=3.5 q=27.0 size=     512KiB time=00:00:02.16 bitrate=1935.8kbits/s speed=0.029x elapsed=0:01:14.71    \nframe=  263 fps=3.5 q=27.0 size=     512KiB time=00:00:02.19 bitrate=1913.8kbits/s speed=0.0291x elapsed=0:01:15.25    \nframe=  266 fps=3.5 q=27.0 size=     512KiB time=00:00:02.21 bitrate=1892.2kbits/s speed=0.0293x elapsed=0:01:15.78    \nframe=  268 fps=3.5 q=27.0 size=     512KiB time=00:00:02.23 bitrate=1878.0kbits/s speed=0.0293x elapsed=0:01:16.32    \nframe=  271 fps=3.5 q=27.0 size=     512KiB time=00:00:02.25 bitrate=1857.3kbits/s speed=0.0294x elapsed=0:01:16.84    \nframe=  271 fps=3.5 q=27.0 size=     512KiB time=00:00:02.25 bitrate=1857.3kbits/s speed=0.0292x elapsed=0:01:17.36    \nframe=  274 fps=3.5 q=27.0 size=     512KiB time=00:00:02.27 bitrate=1843.7kbits/s speed=0.0292x elapsed=0:01:17.90    \nframe=  276 fps=3.5 q=27.0 size=     512KiB time=00:00:02.30 bitrate=1823.6kbits/s speed=0.0293x elapsed=0:01:18.42    \nframe=  278 fps=3.5 q=27.0 size=     512KiB time=00:00:02.31 bitrate=1810.5kbits/s speed=0.0293x elapsed=0:01:18.94    \nframe=  280 fps=3.5 q=27.0 size=     512KiB time=00:00:02.33 bitrate=1797.6kbits/s speed=0.0294x elapsed=0:01:19.47    \nframe=  283 fps=3.5 q=28.0 size=     512KiB time=00:00:02.35 bitrate=1784.8kbits/s speed=0.0294x elapsed=0:01:19.99    \nframe=  285 fps=3.5 q=28.0 size=     512KiB time=00:00:02.37 bitrate=1766.0kbits/s speed=0.0295x elapsed=0:01:20.52    \nframe=  286 fps=3.5 q=28.0 size=     512KiB time=00:00:02.38 bitrate=1759.8kbits/s speed=0.0294x elapsed=0:01:21.05    \nframe=  287 fps=3.5 q=18.0 size=     512KiB time=00:00:02.38 bitrate=1759.8kbits/s speed=0.0292x elapsed=0:01:21.58    \nframe=  289 fps=3.5 q=27.0 size=     512KiB time=00:00:02.40 bitrate=1741.6kbits/s speed=0.0293x elapsed=0:01:22.11    \nframe=  291 fps=3.5 q=28.0 size=     512KiB time=00:00:02.42 bitrate=1729.6kbits/s speed=0.0293x elapsed=0:01:22.64    \nframe=  293 fps=3.5 q=28.0 size=     512KiB time=00:00:02.44 bitrate=1717.8kbits/s speed=0.0294x elapsed=0:01:23.15    \nframe=  295 fps=3.5 q=27.0 size=     512KiB time=00:00:02.45 bitrate=1706.2kbits/s speed=0.0294x elapsed=0:01:23.68    \nframe=  298 fps=3.5 q=27.0 size=     512KiB time=00:00:02.48 bitrate=1689.0kbits/s speed=0.0295x elapsed=0:01:24.22    \nframe=  300 fps=3.5 q=28.0 size=     512KiB time=00:00:02.50 bitrate=1677.7kbits/s speed=0.0295x elapsed=0:01:24.75    \nframe=  301 fps=3.5 q=28.0 size=     512KiB time=00:00:02.50 bitrate=1672.1kbits/s speed=0.0294x elapsed=0:01:25.29    \nframe=  301 fps=3.5 q=28.0 size=     512KiB time=00:00:02.50 bitrate=1672.1kbits/s speed=0.0292x elapsed=0:01:25.81    \nframe=  304 fps=3.5 q=26.0 size=     512KiB time=00:00:02.53 bitrate=1655.6kbits/s speed=0.0293x elapsed=0:01:26.35    \nframe=  306 fps=3.5 q=26.0 size=     512KiB time=00:00:02.55 bitrate=1644.8kbits/s speed=0.0293x elapsed=0:01:26.89    \nframe=  308 fps=3.5 q=26.0 size=     512KiB time=00:00:02.56 bitrate=1634.1kbits/s speed=0.0294x elapsed=0:01:27.44    \nframe=  310 fps=3.5 q=27.0 size=     512KiB time=00:00:02.58 bitrate=1623.6kbits/s speed=0.0294x elapsed=0:01:27.98    \nframe=  312 fps=3.5 q=27.0 size=     512KiB time=00:00:02.60 bitrate=1613.2kbits/s speed=0.0294x elapsed=0:01:28.51    \nframe=  314 fps=3.5 q=27.0 size=     512KiB time=00:00:02.61 bitrate=1602.9kbits/s speed=0.0294x elapsed=0:01:29.04    \nframe=  316 fps=3.5 q=27.0 size=     512KiB time=00:00:02.63 bitrate=1592.8kbits/s speed=0.0294x elapsed=0:01:29.57    \nframe=  316 fps=3.5 q=27.0 size=     512KiB time=00:00:02.63 bitrate=1592.8kbits/s speed=0.0292x elapsed=0:01:30.12    \nframe=  317 fps=3.5 q=17.0 size=     512KiB time=00:00:02.64 bitrate=1587.7kbits/s speed=0.0291x elapsed=0:01:30.65    \nframe=  319 fps=3.5 q=26.0 size=     512KiB time=00:00:02.65 bitrate=1577.8kbits/s speed=0.0292x elapsed=0:01:31.18    \nframe=  321 fps=3.5 q=26.0 size=     512KiB time=00:00:02.67 bitrate=1568.0kbits/s speed=0.0292x elapsed=0:01:31.70    \nframe=  323 fps=3.5 q=27.0 size=     512KiB time=00:00:02.69 bitrate=1558.3kbits/s speed=0.0292x elapsed=0:01:32.23    \nframe=  324 fps=3.5 q=27.0 size=     512KiB time=00:00:02.70 bitrate=1553.4kbits/s speed=0.0291x elapsed=0:01:32.77    \nframe=  326 fps=3.5 q=26.0 size=     512KiB time=00:00:02.71 bitrate=1543.9kbits/s speed=0.0291x elapsed=0:01:33.30    \nframe=  328 fps=3.5 q=28.0 size=     512KiB time=00:00:02.73 bitrate=1534.5kbits/s speed=0.0291x elapsed=0:01:33.81    \nframe=  330 fps=3.5 q=28.0 size=     512KiB time=00:00:02.75 bitrate=1525.2kbits/s speed=0.0292x elapsed=0:01:34.33    \nframe=  331 fps=3.5 q=28.0 size=     512KiB time=00:00:02.75 bitrate=1520.6kbits/s speed=0.0291x elapsed=0:01:34.85    \nframe=  332 fps=3.5 q=18.0 size=     512KiB time=00:00:02.76 bitrate=1516.0kbits/s speed=0.029x elapsed=0:01:35.39    \nframe=  334 fps=3.5 q=25.0 size=     512KiB time=00:00:02.78 bitrate=1506.9kbits/s speed=0.029x elapsed=0:01:35.92    \nframe=  336 fps=3.5 q=25.0 size=     512KiB time=00:00:02.80 bitrate=1498.0kbits/s speed=0.029x elapsed=0:01:36.46    \nframe=  338 fps=3.5 q=25.0 size=     512KiB time=00:00:02.81 bitrate=1489.1kbits/s speed=0.029x elapsed=0:01:37.00    \nframe=  339 fps=3.5 q=25.0 size=     512KiB time=00:00:02.82 bitrate=1484.7kbits/s speed=0.029x elapsed=0:01:37.54    \nframe=  341 fps=3.5 q=25.0 size=     512KiB time=00:00:02.84 bitrate=1476.0kbits/s speed=0.029x elapsed=0:01:38.06    \nframe=  343 fps=3.5 q=26.0 size=     512KiB time=00:00:02.85 bitrate=1467.4kbits/s speed=0.029x elapsed=0:01:38.59    \nframe=  345 fps=3.5 q=26.0 size=     512KiB time=00:00:02.87 bitrate=1458.9kbits/s speed=0.029x elapsed=0:01:39.13    \nframe=  346 fps=3.5 q=26.0 size=     512KiB time=00:00:02.88 bitrate=1454.7kbits/s speed=0.0289x elapsed=0:01:39.66    \nframe=  346 fps=3.5 q=26.0 size=     512KiB time=00:00:02.88 bitrate=1454.7kbits/s speed=0.0288x elapsed=0:01:40.20    \nframe=  347 fps=3.4 q=15.0 size=     512KiB time=00:00:02.89 bitrate=1450.5kbits/s speed=0.0287x elapsed=0:01:40.74    \nframe=  349 fps=3.4 q=26.0 size=     512KiB time=00:00:02.90 bitrate=1442.2kbits/s speed=0.0287x elapsed=0:01:41.27    \nframe=  351 fps=3.4 q=26.0 size=     512KiB time=00:00:02.92 bitrate=1434.0kbits/s speed=0.0287x elapsed=0:01:41.80    \nframe=  353 fps=3.4 q=27.0 size=     512KiB time=00:00:02.94 bitrate=1425.8kbits/s speed=0.0287x elapsed=0:01:42.33    \nframe=  355 fps=3.4 q=27.0 size=     512KiB time=00:00:02.95 bitrate=1417.8kbits/s speed=0.0287x elapsed=0:01:42.90    \nframe=  357 fps=3.5 q=27.0 size=     512KiB time=00:00:02.97 bitrate=1409.9kbits/s speed=0.0288x elapsed=0:01:43.46    \nframe=  359 fps=3.5 q=27.0 size=     512KiB time=00:00:02.99 bitrate=1402.0kbits/s speed=0.0288x elapsed=0:01:44.01    \nframe=  361 fps=3.5 q=27.0 size=     512KiB time=00:00:03.00 bitrate=1394.2kbits/s speed=0.0288x elapsed=0:01:44.53    \nframe=  361 fps=3.4 q=27.0 size=     512KiB time=00:00:03.00 bitrate=1394.2kbits/s speed=0.0286x elapsed=0:01:45.08    \nframe=  362 fps=3.4 q=16.0 size=     512KiB time=00:00:03.01 bitrate=1390.4kbits/s speed=0.0286x elapsed=0:01:45.61    \nframe=  365 fps=3.4 q=30.0 size=     512KiB time=00:00:03.03 bitrate=1382.7kbits/s speed=0.0286x elapsed=0:01:46.14    \nframe=  367 fps=3.4 q=30.0 size=     512KiB time=00:00:03.05 bitrate=1371.4kbits/s speed=0.0287x elapsed=0:01:46.66    \nframe=  369 fps=3.4 q=30.0 size=     512KiB time=00:00:03.07 bitrate=1364.0kbits/s speed=0.0287x elapsed=0:01:47.20    \nframe=  371 fps=3.4 q=30.0 size=     512KiB time=00:00:03.09 bitrate=1356.6kbits/s speed=0.0287x elapsed=0:01:47.73    \nframe=  372 fps=3.4 q=30.0 size=     512KiB time=00:00:03.10 bitrate=1353.0kbits/s speed=0.0286x elapsed=0:01:48.28    \nframe=  374 fps=3.4 q=29.0 size=     512KiB time=00:00:03.11 bitrate=1345.8kbits/s speed=0.0286x elapsed=0:01:48.81    \nframe=  376 fps=3.4 q=29.0 size=     512KiB time=00:00:03.13 bitrate=1338.6kbits/s speed=0.0287x elapsed=0:01:49.35    \nframe=  378 fps=3.4 q=29.0 size=     512KiB time=00:00:03.15 bitrate=1331.5kbits/s speed=0.0287x elapsed=0:01:49.88    \nframe=  381 fps=3.5 q=29.0 size=     512KiB time=00:00:03.17 bitrate=1321.0kbits/s speed=0.0288x elapsed=0:01:50.41    \nframe=  383 fps=3.5 q=29.0 size=     512KiB time=00:00:03.19 bitrate=1314.1kbits/s speed=0.0288x elapsed=0:01:50.95    \nframe=  384 fps=3.4 q=29.0 size=     512KiB time=00:00:03.20 bitrate=1310.7kbits/s speed=0.0287x elapsed=0:01:51.48    \nframe=  385 fps=3.4 q=15.0 size=     512KiB time=00:00:03.20 bitrate=1307.3kbits/s speed=0.0286x elapsed=0:01:52.00    \nframe=  387 fps=3.4 q=27.0 size=     768KiB time=00:00:03.22 bitrate=1950.8kbits/s speed=0.0287x elapsed=0:01:52.53    \nframe=  390 fps=3.4 q=27.0 size=     768KiB time=00:00:03.25 bitrate=1935.8kbits/s speed=0.0287x elapsed=0:01:53.06    \nframe=  392 fps=3.5 q=27.0 size=     768KiB time=00:00:03.26 bitrate=1926.0kbits/s speed=0.0288x elapsed=0:01:53.60    \nframe=  395 fps=3.5 q=27.0 size=     768KiB time=00:00:03.29 bitrate=1911.3kbits/s speed=0.0288x elapsed=0:01:54.13    \nframe=  397 fps=3.5 q=27.0 size=     768KiB time=00:00:03.30 bitrate=1901.7kbits/s speed=0.0288x elapsed=0:01:54.68    \nframe=  399 fps=3.5 q=27.0 size=     768KiB time=00:00:03.32 bitrate=1892.2kbits/s speed=0.0289x elapsed=0:01:55.21    \nframe=  399 fps=3.4 q=27.0 size=     768KiB time=00:00:03.32 bitrate=1892.2kbits/s speed=0.0287x elapsed=0:01:55.76    \nframe=  402 fps=3.5 q=27.0 size=     768KiB time=00:00:03.35 bitrate=1878.0kbits/s speed=0.0288x elapsed=0:01:56.28    \nframe=  404 fps=3.5 q=27.0 size=     768KiB time=00:00:03.36 bitrate=1868.7kbits/s speed=0.0288x elapsed=0:01:56.83    \nframe=  406 fps=3.5 q=28.0 size=     768KiB time=00:00:03.38 bitrate=1859.5kbits/s speed=0.0288x elapsed=0:01:57.37    \nframe=  409 fps=3.5 q=27.0 size=     768KiB time=00:00:03.40 bitrate=1845.9kbits/s speed=0.0289x elapsed=0:01:57.91    \nframe=  411 fps=3.5 q=27.0 size=     768KiB time=00:00:03.42 bitrate=1836.9kbits/s speed=0.0289x elapsed=0:01:58.44    \nframe=  413 fps=3.5 q=27.0 size=     768KiB time=00:00:03.44 bitrate=1828.0kbits/s speed=0.0289x elapsed=0:01:58.98    \nframe=  414 fps=3.5 q=27.0 size=     768KiB time=00:00:03.45 bitrate=1823.6kbits/s speed=0.0289x elapsed=0:01:59.50    \nframe=  415 fps=3.5 q=17.0 size=     768KiB time=00:00:03.45 bitrate=1819.2kbits/s speed=0.0288x elapsed=0:02:00.02    \nframe=  418 fps=3.5 q=27.0 size=     768KiB time=00:00:03.48 bitrate=1806.2kbits/s speed=0.0289x elapsed=0:02:00.53    \nframe=  420 fps=3.5 q=27.0 size=     768KiB time=00:00:03.50 bitrate=1797.6kbits/s speed=0.0289x elapsed=0:02:01.06    \nframe=  422 fps=3.5 q=27.0 size=     768KiB time=00:00:03.51 bitrate=1789.0kbits/s speed=0.0289x elapsed=0:02:01.59    \nframe=  424 fps=3.5 q=27.0 size=     768KiB time=00:00:03.53 bitrate=1780.6kbits/s speed=0.0289x elapsed=0:02:02.12    \nframe=  426 fps=3.5 q=28.0 size=     768KiB time=00:00:03.55 bitrate=1772.2kbits/s speed=0.0289x elapsed=0:02:02.64    \nframe=  429 fps=3.5 q=29.0 size=     768KiB time=00:00:03.57 bitrate=1759.8kbits/s speed=0.029x elapsed=0:02:03.16    \nframe=  429 fps=3.5 q=29.0 size=     768KiB time=00:00:03.57 bitrate=1759.8kbits/s speed=0.0289x elapsed=0:02:03.70    \nframe=  431 fps=3.5 q=28.0 size=     768KiB time=00:00:03.59 bitrate=1751.7kbits/s speed=0.0289x elapsed=0:02:04.24    \nframe=  433 fps=3.5 q=26.0 size=     768KiB time=00:00:03.60 bitrate=1743.6kbits/s speed=0.0289x elapsed=0:02:04.77    \nframe=  435 fps=3.5 q=26.0 size=     768KiB time=00:00:03.62 bitrate=1735.6kbits/s speed=0.0289x elapsed=0:02:05.31    \nframe=  437 fps=3.5 q=27.0 size=     768KiB time=00:00:03.64 bitrate=1727.6kbits/s speed=0.0289x elapsed=0:02:05.86    \nframe=  439 fps=3.5 q=27.0 size=     768KiB time=00:00:03.65 bitrate=1719.8kbits/s speed=0.0289x elapsed=0:02:06.40    \nframe=  441 fps=3.5 q=27.0 size=     768KiB time=00:00:03.67 bitrate=1712.0kbits/s speed=0.029x elapsed=0:02:06.94    \nframe=  443 fps=3.5 q=29.0 size=     768KiB time=00:00:03.69 bitrate=1704.2kbits/s speed=0.029x elapsed=0:02:07.47    \nframe=  444 fps=3.5 q=29.0 size=     768KiB time=00:00:03.70 bitrate=1700.4kbits/s speed=0.0289x elapsed=0:02:07.99    \nframe=  445 fps=3.5 q=19.0 size=     768KiB time=00:00:03.70 bitrate=1696.6kbits/s speed=0.0289x elapsed=0:02:08.52    \nframe=  448 fps=3.5 q=27.0 size=     768KiB time=00:00:03.73 bitrate=1685.2kbits/s speed=0.0289x elapsed=0:02:09.06    \nframe=  450 fps=3.5 q=26.0 size=     768KiB time=00:00:03.75 bitrate=1677.7kbits/s speed=0.0289x elapsed=0:02:09.59    \nframe=  452 fps=3.5 q=27.0 size=     768KiB time=00:00:03.76 bitrate=1670.3kbits/s speed=0.0289x elapsed=0:02:10.13    \nframe=  454 fps=3.5 q=28.0 size=     768KiB time=00:00:03.78 bitrate=1662.9kbits/s speed=0.029x elapsed=0:02:10.66    \nframe=  457 fps=3.5 q=28.0 size=     768KiB time=00:00:03.80 bitrate=1652.0kbits/s speed=0.029x elapsed=0:02:11.17    \nframe=  459 fps=3.5 q=29.0 size=     768KiB time=00:00:03.82 bitrate=1644.8kbits/s speed=0.029x elapsed=0:02:11.70    \nframe=  459 fps=3.5 q=29.0 size=     768KiB time=00:00:03.82 bitrate=1644.8kbits/s speed=0.0289x elapsed=0:02:12.24    \nframe=  461 fps=3.5 q=29.0 size=     768KiB time=00:00:03.84 bitrate=1637.7kbits/s speed=0.0289x elapsed=0:02:12.77    \nframe=  464 fps=3.5 q=28.0 size=     768KiB time=00:00:03.86 bitrate=1627.1kbits/s speed=0.029x elapsed=0:02:13.29    \nframe=  466 fps=3.5 q=29.0 size=     768KiB time=00:00:03.88 bitrate=1620.1kbits/s speed=0.029x elapsed=0:02:13.82    \nframe=  468 fps=3.5 q=29.0 size=     768KiB time=00:00:03.90 bitrate=1613.2kbits/s speed=0.029x elapsed=0:02:14.35    \nframe=  470 fps=3.5 q=30.0 size=     768KiB time=00:00:03.91 bitrate=1606.3kbits/s speed=0.029x elapsed=0:02:14.87    \nframe=  472 fps=3.5 q=31.0 size=     768KiB time=00:00:03.93 bitrate=1599.5kbits/s speed=0.029x elapsed=0:02:15.40    \nframe=  474 fps=3.5 q=32.0 size=     768KiB time=00:00:03.95 bitrate=1592.8kbits/s speed=0.0291x elapsed=0:02:15.95    \nframe=  475 fps=3.5 q=23.0 size=     768KiB time=00:00:03.95 bitrate=1589.4kbits/s speed=0.029x elapsed=0:02:16.49    \nframe=  477 fps=3.5 q=27.0 size=     768KiB time=00:00:03.97 bitrate=1582.8kbits/s speed=0.029x elapsed=0:02:17.03    \nframe=  480 fps=3.5 q=27.0 size=     768KiB time=00:00:04.00 bitrate=1572.9kbits/s speed=0.0291x elapsed=0:02:17.56    \nframe=  483 fps=3.5 q=27.0 size=     768KiB time=00:00:04.01 bitrate=1566.3kbits/s speed=0.0291x elapsed=0:02:18.10    \nframe=  485 fps=3.5 q=28.0 size=     768KiB time=00:00:04.04 bitrate=1556.6kbits/s speed=0.0292x elapsed=0:02:18.62    \nframe=  488 fps=3.5 q=27.0 size=     768KiB time=00:00:04.06 bitrate=1547.1kbits/s speed=0.0292x elapsed=0:02:19.16    \nframe=  489 fps=3.5 q=27.0 size=     768KiB time=00:00:04.07 bitrate=1543.9kbits/s speed=0.0292x elapsed=0:02:19.68    \nframe=  489 fps=3.5 q=27.0 size=     768KiB time=00:00:04.07 bitrate=1543.9kbits/s speed=0.0291x elapsed=0:02:20.20    \nframe=  493 fps=3.5 q=32.0 size=     768KiB time=00:00:04.10 bitrate=1531.4kbits/s speed=0.0292x elapsed=0:02:20.73    \nframe=  497 fps=3.5 q=31.0 size=     768KiB time=00:00:04.14 bitrate=1519.1kbits/s speed=0.0293x elapsed=0:02:21.25    \nframe=  500 fps=3.5 q=32.0 size=     768KiB time=00:00:04.16 bitrate=1509.9kbits/s speed=0.0294x elapsed=0:02:21.77    \nframe=  502 fps=3.5 q=32.0 size=     768KiB time=00:00:04.18 bitrate=1503.9kbits/s speed=0.0294x elapsed=0:02:22.29    \nframe=  504 fps=3.5 q=29.0 size=     768KiB time=00:00:04.20 bitrate=1498.0kbits/s speed=0.0294x elapsed=0:02:22.81    \nframe=  507 fps=3.5 q=31.0 size=     768KiB time=00:00:04.22 bitrate=1489.1kbits/s speed=0.0295x elapsed=0:02:23.35    \nframe=  511 fps=3.6 q=31.0 size=     768KiB time=00:00:04.25 bitrate=1477.4kbits/s speed=0.0296x elapsed=0:02:23.88    \nframe=  512 fps=3.5 q=31.0 size=     768KiB time=00:00:04.26 bitrate=1474.6kbits/s speed=0.0295x elapsed=0:02:24.39    \nframe=  515 fps=3.6 q=28.0 size=    1024KiB time=00:00:04.29 bitrate=1954.6kbits/s speed=0.0296x elapsed=0:02:24.93    \nframe=  519 fps=3.6 q=30.0 size=    1024KiB time=00:00:04.32 bitrate=1939.6kbits/s speed=0.0297x elapsed=0:02:25.46    \nframe=  522 fps=3.6 q=31.0 size=    1024KiB time=00:00:04.35 bitrate=1928.4kbits/s speed=0.0298x elapsed=0:02:26.00    \nframe=  527 fps=3.6 q=31.0 size=    1024KiB time=00:00:04.39 bitrate=1910.1kbits/s speed=0.03x elapsed=0:02:26.53    \nframe=  529 fps=3.6 q=31.0 size=    1024KiB time=00:00:04.40 bitrate=1902.9kbits/s speed=0.03x elapsed=0:02:27.06    \nframe=  532 fps=3.6 q=30.0 size=    1024KiB time=00:00:04.43 bitrate=1892.2kbits/s speed=0.03x elapsed=0:02:27.60    \nframe=  535 fps=3.6 q=32.0 size=    1024KiB time=00:00:04.45 bitrate=1881.6kbits/s speed=0.0301x elapsed=0:02:28.14    \nframe=  538 fps=3.6 q=33.0 size=    1024KiB time=00:00:04.48 bitrate=1871.1kbits/s speed=0.0302x elapsed=0:02:28.65    \nframe=  542 fps=3.6 q=32.0 size=    1024KiB time=00:00:04.51 bitrate=1857.3kbits/s speed=0.0303x elapsed=0:02:29.18    \nframe=  542 fps=3.6 q=32.0 size=    1024KiB time=00:00:04.51 bitrate=1857.3kbits/s speed=0.0302x elapsed=0:02:29.69    \nframe=  546 fps=3.6 q=29.0 size=    1024KiB time=00:00:04.54 bitrate=1847.0kbits/s speed=0.0302x elapsed=0:02:30.20    \nframe=  548 fps=3.6 q=30.0 size=    1024KiB time=00:00:04.56 bitrate=1836.9kbits/s speed=0.0303x elapsed=0:02:30.72    \nframe=  551 fps=3.6 q=32.0 size=    1024KiB time=00:00:04.59 bitrate=1826.9kbits/s speed=0.0304x elapsed=0:02:31.24    \nframe=  555 fps=3.7 q=33.0 size=    1024KiB time=00:00:04.62 bitrate=1813.8kbits/s speed=0.0305x elapsed=0:02:31.76    \nframe=  557 fps=3.7 q=34.0 size=    1024KiB time=00:00:04.64 bitrate=1807.2kbits/s speed=0.0305x elapsed=0:02:32.29    \nframe=  558 fps=3.7 q=19.0 size=    1024KiB time=00:00:04.65 bitrate=1804.0kbits/s speed=0.0304x elapsed=0:02:32.84    \nframe=  562 fps=3.7 q=32.0 size=    1024KiB time=00:00:04.68 bitrate=1791.2kbits/s speed=0.0305x elapsed=0:02:33.37    \nframe=  565 fps=3.7 q=33.0 size=    1024KiB time=00:00:04.70 bitrate=1781.7kbits/s speed=0.0306x elapsed=0:02:33.90    \nframe=  568 fps=3.7 q=32.0 size=    1024KiB time=00:00:04.73 bitrate=1772.2kbits/s speed=0.0306x elapsed=0:02:34.43    \nframe=  571 fps=3.7 q=31.0 size=    1024KiB time=00:00:04.75 bitrate=1762.9kbits/s speed=0.0307x elapsed=0:02:34.96    \nframe=  572 fps=3.7 q=31.0 size=    1024KiB time=00:00:04.76 bitrate=1759.8kbits/s speed=0.0307x elapsed=0:02:35.48    \nframe=  576 fps=3.7 q=28.0 size=    1024KiB time=00:00:04.80 bitrate=1747.6kbits/s speed=0.0308x elapsed=0:02:36.00    \nframe=  576 fps=3.7 q=28.0 size=    1024KiB time=00:00:04.80 bitrate=1747.6kbits/s speed=0.0307x elapsed=0:02:36.54    \nframe=  576 fps=3.7 q=28.0 size=    1024KiB time=00:00:04.80 bitrate=1747.6kbits/s speed=0.0306x elapsed=0:02:37.09    \nframe=  576 fps=3.7 q=28.0 size=    1024KiB time=00:00:04.80 bitrate=1747.6kbits/s speed=0.0305x elapsed=0:02:37.61    \nframe=  576 fps=3.6 q=28.0 size=    1024KiB time=00:00:04.80 bitrate=1747.6kbits/s speed=0.0304x elapsed=0:02:38.13    \nframe=  576 fps=3.6 q=28.0 size=    1024KiB time=00:00:04.80 bitrate=1747.6kbits/s speed=0.0303x elapsed=0:02:38.66    \nframe=  576 fps=3.6 q=28.0 size=    1024KiB time=00:00:04.80 bitrate=1747.6kbits/s speed=0.0302x elapsed=0:02:39.20    \nframe=  576 fps=3.6 q=28.0 size=    1024KiB time=00:00:04.80 bitrate=1747.6kbits/s speed=0.0301x elapsed=0:02:39.70    \nframe=  576 fps=3.6 q=28.0 size=    1024KiB time=00:00:04.80 bitrate=1747.6kbits/s speed=0.03x elapsed=0:02:40.22    \n[out#0/webm @ 000001a0ff508e00] video:1342KiB audio:0KiB subtitle:0KiB other streams:0KiB global headers:0KiB muxing overhead: 0.352429%\nframe=  600 fps=3.7 q=29.0 Lsize=    1347KiB time=00:00:05.00 bitrate=2206.4kbits/s speed=0.0312x elapsed=0:02:40.24    \n",
  "seconds": 160.48959183692932,
  "probe_out": {}
}